ISO-10303-21;
HEADER;
/* Generated by software containing ST-Developer
 * from STEP Tools, Inc. (www.steptools.com) 
 */
/* OPTION: using custom renumber hook */

FILE_DESCRIPTION(
/* description */ ('STEP AP242 Edition 2',
'CAx-IF Rec.Pracs.---Representation and Presentation of Product Manufa
cturing Information (PMI)---4.0---2014-10-13',
'CAx-IF Rec.Pracs.---3D Tessellated Geometry---0.4---2014-09-14','2;1',
'CAx-IF Rec.Pracs.---User Defined Attributes---1.5---2016-08-15'),
/* implementation_level */ '2;1');

FILE_NAME(
/* name */ 'voron_sphinx_tLW - mid_support',
/* time_stamp */ '2026-09-03T18:54:56Z',
/* author */ (''),
/* organization */ (''),
/* preprocessor_version */ 'ST-DEVELOPER v20',
/* originating_system */ 'ONSHAPE BY PTC INC, 1.220',
/* authorisation */ '  ');

FILE_SCHEMA (('AP242_MANAGED_MODEL_BASED_3D_ENGINEERING_MIM_LF { 1 0 10303 442 3 1 4 }'));
ENDSEC;

DATA;
#10=SHAPE_REPRESENTATION_RELATIONSHIP('','',#193,#11);
#11=ADVANCED_BREP_SHAPE_REPRESENTATION('',(#191),#341);
#12=B_SPLINE_SURFACE_WITH_KNOTS('',3,3,((#305,#306,#307,#308),(#309,#310,
#311,#312),(#313,#314,#315,#316),(#317,#318,#319,#320)),.UNSPECIFIED.,.F.,
 .F.,.F.,(4,4),(4,4),(-0.00515295666854157,1.00515298934745),(0.741396538372609,
0.9048485410091),.UNSPECIFIED.);
#13=CIRCLE('',#198,0.00175);
#14=CIRCLE('',#200,0.00175);
#15=CYLINDRICAL_SURFACE('',#197,0.00175);
#16=CYLINDRICAL_SURFACE('',#199,0.00175);
#17=LINE('',#252,#31);
#18=LINE('',#254,#32);
#19=LINE('',#256,#33);
#20=LINE('',#258,#34);
#21=LINE('',#260,#35);
#22=LINE('',#262,#36);
#23=LINE('',#264,#37);
#24=LINE('',#266,#38);
#25=LINE('',#298,#39);
#26=LINE('',#301,#40);
#27=LINE('',#302,#41);
#28=LINE('',#304,#42);
#29=LINE('',#336,#43);
#30=LINE('',#338,#44);
#31=VECTOR('',#210,1.);
#32=VECTOR('',#211,1.);
#33=VECTOR('',#212,1.);
#34=VECTOR('',#213,1.);
#35=VECTOR('',#214,1.);
#36=VECTOR('',#217,1.);
#37=VECTOR('',#218,1.);
#38=VECTOR('',#219,1.);
#39=VECTOR('',#230,1.);
#40=VECTOR('',#231,1.);
#41=VECTOR('',#232,1.);
#42=VECTOR('',#235,1.);
#43=VECTOR('',#238,1.);
#44=VECTOR('',#241,1.);
#45=ORIENTED_EDGE('',*,*,#89,.T.);
#46=ORIENTED_EDGE('',*,*,#90,.T.);
#47=ORIENTED_EDGE('',*,*,#91,.T.);
#48=ORIENTED_EDGE('',*,*,#92,.F.);
#49=ORIENTED_EDGE('',*,*,#93,.F.);
#50=ORIENTED_EDGE('',*,*,#94,.T.);
#51=ORIENTED_EDGE('',*,*,#91,.F.);
#52=ORIENTED_EDGE('',*,*,#95,.T.);
#53=ORIENTED_EDGE('',*,*,#96,.T.);
#54=ORIENTED_EDGE('',*,*,#97,.F.);
#55=ORIENTED_EDGE('',*,*,#98,.F.);
#56=ORIENTED_EDGE('',*,*,#99,.F.);
#57=ORIENTED_EDGE('',*,*,#100,.F.);
#58=ORIENTED_EDGE('',*,*,#101,.F.);
#59=ORIENTED_EDGE('',*,*,#102,.F.);
#60=ORIENTED_EDGE('',*,*,#103,.T.);
#61=ORIENTED_EDGE('',*,*,#93,.T.);
#62=ORIENTED_EDGE('',*,*,#104,.T.);
#63=ORIENTED_EDGE('',*,*,#101,.T.);
#64=ORIENTED_EDGE('',*,*,#99,.T.);
#65=ORIENTED_EDGE('',*,*,#105,.F.);
#66=ORIENTED_EDGE('',*,*,#104,.F.);
#67=ORIENTED_EDGE('',*,*,#92,.T.);
#68=ORIENTED_EDGE('',*,*,#97,.T.);
#69=ORIENTED_EDGE('',*,*,#98,.T.);
#70=ORIENTED_EDGE('',*,*,#100,.T.);
#71=ORIENTED_EDGE('',*,*,#106,.T.);
#72=ORIENTED_EDGE('',*,*,#107,.T.);
#73=ORIENTED_EDGE('',*,*,#89,.F.);
#74=ORIENTED_EDGE('',*,*,#108,.T.);
#75=ORIENTED_EDGE('',*,*,#109,.F.);
#76=ORIENTED_EDGE('',*,*,#95,.F.);
#77=ORIENTED_EDGE('',*,*,#90,.F.);
#78=ORIENTED_EDGE('',*,*,#107,.F.);
#79=ORIENTED_EDGE('',*,*,#108,.F.);
#80=ORIENTED_EDGE('',*,*,#94,.F.);
#81=ORIENTED_EDGE('',*,*,#103,.F.);
#82=ORIENTED_EDGE('',*,*,#110,.F.);
#83=ORIENTED_EDGE('',*,*,#96,.F.);
#84=ORIENTED_EDGE('',*,*,#109,.T.);
#85=ORIENTED_EDGE('',*,*,#106,.F.);
#86=ORIENTED_EDGE('',*,*,#110,.T.);
#87=ORIENTED_EDGE('',*,*,#102,.T.);
#88=ORIENTED_EDGE('',*,*,#105,.T.);
#89=EDGE_CURVE('',#111,#112,#127,.T.);
#90=EDGE_CURVE('',#112,#113,#17,.T.);
#91=EDGE_CURVE('',#113,#114,#18,.T.);
#92=EDGE_CURVE('',#115,#114,#19,.T.);
#93=EDGE_CURVE('',#116,#115,#20,.T.);
#94=EDGE_CURVE('',#116,#111,#21,.F.);
#95=EDGE_CURVE('',#113,#117,#22,.T.);
#96=EDGE_CURVE('',#117,#118,#23,.T.);
#97=EDGE_CURVE('',#114,#118,#24,.T.);
#98=EDGE_CURVE('',#119,#119,#128,.T.);
#99=EDGE_CURVE('',#120,#120,#13,.T.);
#100=EDGE_CURVE('',#121,#121,#129,.T.);
#101=EDGE_CURVE('',#122,#122,#14,.T.);
#102=EDGE_CURVE('',#123,#124,#25,.T.);
#103=EDGE_CURVE('',#123,#116,#26,.T.);
#104=EDGE_CURVE('',#115,#124,#27,.T.);
#105=EDGE_CURVE('',#124,#118,#28,.T.);
#106=EDGE_CURVE('',#125,#126,#130,.T.);
#107=EDGE_CURVE('',#126,#112,#131,.T.);
#108=EDGE_CURVE('',#111,#125,#132,.T.);
#109=EDGE_CURVE('',#117,#126,#29,.T.);
#110=EDGE_CURVE('',#125,#123,#30,.F.);
#111=VERTEX_POINT('',#250);
#112=VERTEX_POINT('',#251);
#113=VERTEX_POINT('',#253);
#114=VERTEX_POINT('',#255);
#115=VERTEX_POINT('',#257);
#116=VERTEX_POINT('',#259);
#117=VERTEX_POINT('',#263);
#118=VERTEX_POINT('',#265);
#119=VERTEX_POINT('',#279);
#120=VERTEX_POINT('',#281);
#121=VERTEX_POINT('',#294);
#122=VERTEX_POINT('',#296);
#123=VERTEX_POINT('',#299);
#124=VERTEX_POINT('',#300);
#125=VERTEX_POINT('',#325);
#126=VERTEX_POINT('',#326);
#127=B_SPLINE_CURVE_WITH_KNOTS('',3,(#246,#247,#248,#249),.UNSPECIFIED.,
 .F.,.F.,(4,4),(0.129144169114027,0.156447318097308),.UNSPECIFIED.);
#128=B_SPLINE_CURVE_WITH_KNOTS('',3,(#268,#269,#270,#271,#272,#273,#274,
#275,#276,#277,#278),.UNSPECIFIED.,.T.,.F.,(1,1,1,1,1,1,1,1,1,1,1,1,1,1,
1),(-0.00414178547999127,-0.00276119031999416,-0.00138059515999705,5.30723331281595E-17,
0.00138059515999716,0.00276119031999427,0.00414178547999138,0.00552238063998848,
0.00690297579998559,0.0082835709599827,0.00966416611997981,0.0110447612799769,
0.012425356439974,0.0138059515999711,0.0151865467599682),.UNSPECIFIED.);
#129=B_SPLINE_CURVE_WITH_KNOTS('',3,(#283,#284,#285,#286,#287,#288,#289,
#290,#291,#292,#293),.UNSPECIFIED.,.T.,.F.,(1,1,1,1,1,1,1,1,1,1,1,1,1,1,
1),(-0.00414178546154603,-0.00276119030769733,-0.00138059515384864,5.30723331281595E-17,
0.00138059515384875,0.00276119030769744,0.00414178546154613,0.00552238061539483,
0.00690297576924352,0.00828357092309222,0.00966416607694091,0.0110447612307896,
0.0124253563846383,0.013805951538487,0.0151865466923357),.UNSPECIFIED.);
#130=B_SPLINE_CURVE_WITH_KNOTS('',3,(#321,#322,#323,#324),.UNSPECIFIED.,
 .F.,.F.,(4,4),(0.0518259809953083,0.0803629022125655),.UNSPECIFIED.);
#131=B_SPLINE_CURVE_WITH_KNOTS('',3,(#327,#328,#329,#330),.UNSPECIFIED.,
 .F.,.F.,(4,4),(0.,0.00644924355368787),.UNSPECIFIED.);
#132=B_SPLINE_CURVE_WITH_KNOTS('',3,(#331,#332,#333,#334),.UNSPECIFIED.,
 .F.,.F.,(4,4),(0.0485257180682851,0.0549457023213883),.UNSPECIFIED.);
#133=EDGE_LOOP('',(#45,#46,#47,#48,#49,#50));
#134=EDGE_LOOP('',(#51,#52,#53,#54));
#135=EDGE_LOOP('',(#55));
#136=EDGE_LOOP('',(#56));
#137=EDGE_LOOP('',(#57));
#138=EDGE_LOOP('',(#58));
#139=EDGE_LOOP('',(#59,#60,#61,#62));
#140=EDGE_LOOP('',(#63));
#141=EDGE_LOOP('',(#64));
#142=EDGE_LOOP('',(#65,#66,#67,#68));
#143=EDGE_LOOP('',(#69));
#144=EDGE_LOOP('',(#70));
#145=EDGE_LOOP('',(#71,#72,#73,#74));
#146=EDGE_LOOP('',(#75,#76,#77,#78));
#147=EDGE_LOOP('',(#79,#80,#81,#82));
#148=EDGE_LOOP('',(#83,#84,#85,#86,#87,#88));
#149=FACE_BOUND('',#133,.T.);
#150=FACE_BOUND('',#134,.T.);
#151=FACE_BOUND('',#135,.T.);
#152=FACE_BOUND('',#136,.T.);
#153=FACE_BOUND('',#137,.T.);
#154=FACE_BOUND('',#138,.T.);
#155=FACE_BOUND('',#139,.T.);
#156=FACE_BOUND('',#140,.T.);
#157=FACE_BOUND('',#141,.T.);
#158=FACE_BOUND('',#142,.T.);
#159=FACE_BOUND('',#143,.T.);
#160=FACE_BOUND('',#144,.T.);
#161=FACE_BOUND('',#145,.T.);
#162=FACE_BOUND('',#146,.T.);
#163=FACE_BOUND('',#147,.T.);
#164=FACE_BOUND('',#148,.T.);
#165=PLANE('',#195);
#166=PLANE('',#196);
#167=PLANE('',#201);
#168=PLANE('',#202);
#169=PLANE('',#203);
#170=PLANE('',#204);
#171=PLANE('',#205);
#172=ADVANCED_FACE('',(#149),#165,.T.);
#173=ADVANCED_FACE('',(#150),#166,.T.);
#174=ADVANCED_FACE('',(#151,#152),#15,.F.);
#175=ADVANCED_FACE('',(#153,#154),#16,.F.);
#176=ADVANCED_FACE('',(#155),#167,.F.);
#177=ADVANCED_FACE('',(#156,#157,#158),#168,.F.);
#178=ADVANCED_FACE('',(#159,#160,#161),#12,.T.);
#179=ADVANCED_FACE('',(#162),#169,.T.);
#180=ADVANCED_FACE('',(#163),#170,.F.);
#181=ADVANCED_FACE('',(#164),#171,.T.);
#182=CLOSED_SHELL('',(#172,#173,#174,#175,#176,#177,#178,#179,#180,#181));
#183=STYLED_ITEM('',(#184),#191);
#184=PRESENTATION_STYLE_ASSIGNMENT((#185));
#185=SURFACE_STYLE_USAGE(.BOTH.,#186);
#186=SURFACE_SIDE_STYLE('',(#187));
#187=SURFACE_STYLE_FILL_AREA(#188);
#188=FILL_AREA_STYLE('',(#189));
#189=FILL_AREA_STYLE_COLOUR('',#190);
#190=COLOUR_RGB('',0.498039215686275,0.498039215686275,0.498039215686275);
#191=MANIFOLD_SOLID_BREP('mid_support',#182);
#192=SHAPE_DEFINITION_REPRESENTATION(#346,#193);
#193=SHAPE_REPRESENTATION('mid_support',(#194),#341);
#194=AXIS2_PLACEMENT_3D('',#244,#206,#207);
#195=AXIS2_PLACEMENT_3D('',#245,#208,#209);
#196=AXIS2_PLACEMENT_3D('',#261,#215,#216);
#197=AXIS2_PLACEMENT_3D('',#267,#220,#221);
#198=AXIS2_PLACEMENT_3D('',#280,#222,#223);
#199=AXIS2_PLACEMENT_3D('',#282,#224,#225);
#200=AXIS2_PLACEMENT_3D('',#295,#226,#227);
#201=AXIS2_PLACEMENT_3D('',#297,#228,#229);
#202=AXIS2_PLACEMENT_3D('',#303,#233,#234);
#203=AXIS2_PLACEMENT_3D('',#335,#236,#237);
#204=AXIS2_PLACEMENT_3D('',#337,#239,#240);
#205=AXIS2_PLACEMENT_3D('',#339,#242,#243);
#206=DIRECTION('',(0.,0.,1.));
#207=DIRECTION('',(1.,0.,0.));
#208=DIRECTION('',(-4.78965841430634E-8,9.60814546495948E-14,1.));
#209=DIRECTION('',(-9.4282418306375E-14,-1.,9.60814501414604E-14));
#210=DIRECTION('',(-0.447213580947412,-0.894427198276188,-2.14199169719022E-8));
#211=DIRECTION('',(1.20878230939545E-8,-1.,9.66604200931923E-14));
#212=DIRECTION('',(-1.,-1.20878232662819E-8,-4.78965841430622E-8));
#213=DIRECTION('',(1.20878230939545E-8,-1.,9.66604200931923E-14));
#214=DIRECTION('',(0.447213606311627,-0.894427185594081,2.14200900624928E-8));
#215=DIRECTION('',(-1.,-1.20878232662819E-8,-4.78965900416494E-8));
#216=DIRECTION('',(1.20878230939545E-8,-1.,9.68455826717129E-14));
#217=DIRECTION('',(4.78965900416506E-8,-9.60814546495953E-14,-1.));
#218=DIRECTION('',(1.20878230939545E-8,-1.,9.66604200931923E-14));
#219=DIRECTION('',(4.78965900416506E-8,-9.60814545782937E-14,-1.));
#220=DIRECTION('',(1.20878230939545E-8,-1.,9.66604200931923E-14));
#221=DIRECTION('',(1.,1.20878232662819E-8,4.78965840080643E-8));
#222=DIRECTION('',(-1.20878230939545E-8,1.,-9.66604200931923E-14));
#223=DIRECTION('',(-1.,-1.20878232662819E-8,-4.78965840080643E-8));
#224=DIRECTION('',(1.20878230939545E-8,-1.,9.66604200931923E-14));
#225=DIRECTION('',(1.,1.20878232662819E-8,4.78965840080643E-8));
#226=DIRECTION('',(-1.20878230939545E-8,1.,-9.66604200931923E-14));
#227=DIRECTION('',(-1.,-1.20878232662819E-8,-4.78965840080643E-8));
#228=DIRECTION('',(-1.,-1.20878232662819E-8,-4.78965779744792E-8));
#229=DIRECTION('',(1.20878230939545E-8,-1.,9.68455826717129E-14));
#230=DIRECTION('',(1.20878230939545E-8,-1.,9.66604200931923E-14));
#231=DIRECTION('',(-4.78965779744804E-8,9.60814547241595E-14,1.));
#232=DIRECTION('',(4.78965779744804E-8,-9.60814547241595E-14,-1.));
#233=DIRECTION('',(-1.20878230939545E-8,1.,-9.66604200931923E-14));
#234=DIRECTION('',(-1.,-1.20878232662819E-8,-4.78965840080643E-8));
#235=DIRECTION('',(-1.,-1.20878232662819E-8,-4.78965840080643E-8));
#236=DIRECTION('',(-0.894427198276187,0.447213580947413,-4.2840055806868E-8));
#237=DIRECTION('',(4.78965900416506E-8,-9.60814546495953E-14,-1.));
#238=DIRECTION('',(0.447213580947412,0.894427198276188,2.14199169115292E-8));
#239=DIRECTION('',(-0.89442718559408,-0.447213606311628,-4.28399584683681E-8));
#240=DIRECTION('',(-4.78965779744804E-8,9.60814547241595E-14,1.));
#241=DIRECTION('',(-0.447213606311627,0.894427185594081,-2.14200900021199E-8));
#242=DIRECTION('',(4.78965840080655E-8,-9.60814546512266E-14,-1.));
#243=DIRECTION('',(1.,4.60197346431962E-21,4.78965840080655E-8));
#244=CARTESIAN_POINT('',(0.,0.,0.));
#245=CARTESIAN_POINT('',(8.24885792275435E-7,0.0352103750721031,-0.0136000000000295));
#246=CARTESIAN_POINT('',(0.0136523995587895,0.0305394968490926,-0.0135999993461653));
#247=CARTESIAN_POINT('',(0.00455134989770238,0.0305395030648896,-0.0135999997820744));
#248=CARTESIAN_POINT('',(-0.00454969976262709,0.0305395030643244,-0.0136000002179836));
#249=CARTESIAN_POINT('',(-0.0136507494237436,0.0305394968470938,-0.0136000006538928));
#250=CARTESIAN_POINT('',(0.0136523995587895,0.0305394968490926,-0.0135999993461653));
#251=CARTESIAN_POINT('',(-0.0136507494237436,0.0305394968470938,-0.0136000006538928));
#252=CARTESIAN_POINT('',(-0.00905208349512203,0.0397368290784441,-0.0136000004336333));
#253=CARTESIAN_POINT('',(-0.0183991748604516,0.0210426457523877,-0.0136000008813253));
#254=CARTESIAN_POINT('',(-0.0183991750317086,0.0352103748496871,-0.0136000008813266));
#255=CARTESIAN_POINT('',(-0.0183991746086348,0.000210374849687164,-0.0136000008813233));
#256=CARTESIAN_POINT('',(8.25308866083724E-7,0.00021037507210311,-0.0136000000000261));
#257=CARTESIAN_POINT('',(0.0184008254738642,0.000210375294519061,-0.013599999118729));
#258=CARTESIAN_POINT('',(0.0184008250507905,0.0352103752945191,-0.0135999991187323));
#259=CARTESIAN_POINT('',(0.0184008252220474,0.0210426458095673,-0.013599999118731));
#260=CARTESIAN_POINT('',(0.00905373316909526,0.039736829350542,-0.0135999995664266));
#261=CARTESIAN_POINT('',(-0.0183991756880312,0.0352103748496886,0.00182536828677681));
#262=CARTESIAN_POINT('',(-0.0183991744762031,0.0210426457523871,-0.0199000008813252));
#263=CARTESIAN_POINT('',(-0.0183991744762031,0.0210426457523871,-0.0199000008813252));
#264=CARTESIAN_POINT('',(-0.0183991746474601,0.0352103748496865,-0.0199000008813266));
#265=CARTESIAN_POINT('',(-0.0183991742243863,0.000210374849686559,-0.0199000008813233));
#266=CARTESIAN_POINT('',(-0.0183991752649574,0.000210374849688647,0.00182536828678019));
#267=CARTESIAN_POINT('',(0.00995082579034667,0.0352103751923767,-0.0167499995234584));
#268=CARTESIAN_POINT('',(0.00881337094159915,0.0303296114819584,-0.0151751890488251));
#269=CARTESIAN_POINT('',(0.00803989943440993,0.0301164649540869,-0.0164422381425945));
#270=CARTESIAN_POINT('',(0.00836890617025029,0.0298178145726398,-0.0178657172250763));
#271=CARTESIAN_POINT('',(0.00962232986550212,0.0296241512275378,-0.0186657037062923));
#272=CARTESIAN_POINT('',(0.0110871422207007,0.0297092820867637,-0.0183229795963944));
#273=CARTESIAN_POINT('',(0.0118577436184844,0.0299918065401715,-0.0170717627603249));
#274=CARTESIAN_POINT('',(0.0115399960595757,0.0302573601483955,-0.0156398599332659));
#275=CARTESIAN_POINT('',(0.010279491144368,0.0303780338396075,-0.0148336474987424));
#276=CARTESIAN_POINT('',(0.00881337094159915,0.0303296114819584,-0.0151751890488251));
#277=CARTESIAN_POINT('',(0.00803989943440993,0.0301164649540869,-0.0164422381425945));
#278=CARTESIAN_POINT('',(0.00836890617025029,0.0298178145726398,-0.0178657172250763));
#279=CARTESIAN_POINT('',(0.00822364580824837,0.0301022143118243,-0.01646830980738));
#280=CARTESIAN_POINT('',(0.00995082621342048,0.000210375192376662,-0.016749999523455));
#281=CARTESIAN_POINT('',(0.00820082621342048,0.000210375171222971,-0.0167499996072741));
#282=CARTESIAN_POINT('',(-0.00994917541481866,0.035210374951829,-0.0167500004766006));
#283=CARTESIAN_POINT('',(-0.0110866210238416,0.0303295899551291,-0.0151751845661788));
#284=CARTESIAN_POINT('',(-0.0118600982674074,0.0301164176925923,-0.0164422237762462));
#285=CARTESIAN_POINT('',(-0.0115311053658317,0.0298177635102853,-0.0178657056614466));
#286=CARTESIAN_POINT('',(-0.0102776804558949,0.0296241389836993,-0.018665703808847));
#287=CARTESIAN_POINT('',(-0.00881287009222109,0.0297093218761961,-0.0183229866258306));
#288=CARTESIAN_POINT('',(-0.0080422604549913,0.0299918595293694,-0.0170717807622384));
#289=CARTESIAN_POINT('',(-0.00835999674948059,0.0302573938331567,-0.0156398705371296));
#290=CARTESIAN_POINT('',(-0.00962050078794372,0.0303780393720492,-0.0148336497331059));
#291=CARTESIAN_POINT('',(-0.0110866210238416,0.0303295899551291,-0.0151751845661788));
#292=CARTESIAN_POINT('',(-0.0118600982674074,0.0301164176925923,-0.0164422237762462));
#293=CARTESIAN_POINT('',(-0.0115311053658317,0.0298177635102853,-0.0178657056614466));
#294=CARTESIAN_POINT('',(-0.011676353243217,0.030102170705964,-0.0164682975554351));
#295=CARTESIAN_POINT('',(-0.00994917499174486,0.000210374951828965,-0.0167500004765972));
#296=CARTESIAN_POINT('',(-0.0116991749917449,0.000210374930675274,-0.0167500005604162));
#297=CARTESIAN_POINT('',(0.018400824311968,0.0352103752945205,0.00182537004937111));
#298=CARTESIAN_POINT('',(0.0184008253525388,0.0352103752945184,-0.0198999991187323));
#299=CARTESIAN_POINT('',(0.0184008255237958,0.0210426458095666,-0.019899999118731));
#300=CARTESIAN_POINT('',(0.0184008257756126,0.000210375294518457,-0.019899999118729));
#301=CARTESIAN_POINT('',(0.018400824483225,0.0210426458095687,0.00182537004937248));
#302=CARTESIAN_POINT('',(0.0184008247350418,0.000210375294520543,0.00182537004937448));
#303=CARTESIAN_POINT('',(8.26220055715122E-7,0.000210375072101519,-0.0302211020167952));
#304=CARTESIAN_POINT('',(8.25775613151441E-7,0.00021037507210251,-0.0199000000000261));
#305=CARTESIAN_POINT('',(0.0147680091131134,0.0292952476621757,-0.0199383766609077));
#306=CARTESIAN_POINT('',(0.0143421892632113,0.0298848640864409,-0.0177815945187928));
#307=CARTESIAN_POINT('',(0.0140040014625754,0.0303105156204812,-0.0156423541497904));
#308=CARTESIAN_POINT('',(0.0138127819817607,0.030543689235335,-0.0135627894396319));
#309=CARTESIAN_POINT('',(0.0049232198964917,0.0292952476515874,-0.0199383771551076));
#310=CARTESIAN_POINT('',(0.00478127990180161,0.0298848640799546,-0.0177815949945041));
#311=CARTESIAN_POINT('',(0.0046685505861216,0.0303105156171452,-0.0156423546098358));
#312=CARTESIAN_POINT('',(0.00460481070386708,0.0305436892337581,-0.0135627898888229));
#313=CARTESIAN_POINT('',(-0.00492156932013003,0.0292952476409992,-0.0199383776493075));
#314=CARTESIAN_POINT('',(-0.00477962945960812,0.0298848640734683,-0.0177815954702154));
#315=CARTESIAN_POINT('',(-0.00466690029033221,0.0303105156138092,-0.0156423550698812));
#316=CARTESIAN_POINT('',(-0.00460316057402655,0.0305436892321811,-0.0135627903380139));
#317=CARTESIAN_POINT('',(-0.0147663585367518,0.0292952476304109,-0.0199383781435075));
#318=CARTESIAN_POINT('',(-0.0143405388210179,0.029884864066982,-0.0177815959459268));
#319=CARTESIAN_POINT('',(-0.014002351166786,0.0303105156104732,-0.0156423555299267));
#320=CARTESIAN_POINT('',(-0.0138111318519202,0.0305436892306041,-0.0135627907872049));
#321=CARTESIAN_POINT('',(0.0142692859971911,0.0293057246130697,-0.0198999993166184));
#322=CARTESIAN_POINT('',(0.00475697892481697,0.0293058305065821,-0.0198999997722254));
#323=CARTESIAN_POINT('',(-0.00475532814310529,0.0293058305028642,-0.0199000002278324));
#324=CARTESIAN_POINT('',(-0.0142676352202259,0.0293057246004472,-0.0199000006834394));
#325=CARTESIAN_POINT('',(0.0142692859971911,0.0293057246130697,-0.0198999993166184));
#326=CARTESIAN_POINT('',(-0.0142676352202259,0.0293057246004471,-0.0199000006834394));
#327=CARTESIAN_POINT('',(-0.0142676352202259,0.0293057246004471,-0.0199000006834394));
#328=CARTESIAN_POINT('',(-0.0139865531582803,0.0298678889448319,-0.0178369420941026));
#329=CARTESIAN_POINT('',(-0.0137719516916933,0.0302970920962091,-0.0157413351295482));
#330=CARTESIAN_POINT('',(-0.0136507494237436,0.0305394968470938,-0.0136000006538928));
#331=CARTESIAN_POINT('',(0.0136523995587895,0.0305394968490926,-0.0135999993461653));
#332=CARTESIAN_POINT('',(0.0137726226294148,0.0302990509185758,-0.0157240301693857));
#333=CARTESIAN_POINT('',(0.013989262456012,0.0298657714816215,-0.0178447115556372));
#334=CARTESIAN_POINT('',(0.0142692859971913,0.0293057246130697,-0.0198999993166184));
#335=CARTESIAN_POINT('',(-0.0133991737839151,0.0310426457523848,-0.0386000006418434));
#336=CARTESIAN_POINT('',(-0.0133991746795813,0.0310426457523867,-0.0199000006418433));
#337=CARTESIAN_POINT('',(0.018400824483225,0.0210426458095687,0.00182537004937248));
#338=CARTESIAN_POINT('',(0.0184008255237958,0.0210426458095666,-0.019899999118731));
#339=CARTESIAN_POINT('',(8.25649704749363E-7,0.0147583148419379,-0.0199000000000275));
#340=MECHANICAL_DESIGN_GEOMETRIC_PRESENTATION_REPRESENTATION('',(#183),
#341);
#341=(
GEOMETRIC_REPRESENTATION_CONTEXT(3)
GLOBAL_UNCERTAINTY_ASSIGNED_CONTEXT((#342))
GLOBAL_UNIT_ASSIGNED_CONTEXT((#345,#344,#343))
REPRESENTATION_CONTEXT('mid_support','TOP_LEVEL_ASSEMBLY_PART')
);
#342=UNCERTAINTY_MEASURE_WITH_UNIT(LENGTH_MEASURE(2.E-5),#345,
'DISTANCE_ACCURACY_VALUE','Maximum Tolerance applied to model');
#343=(
NAMED_UNIT(*)
SI_UNIT($,.STERADIAN.)
SOLID_ANGLE_UNIT()
);
#344=(
NAMED_UNIT(*)
PLANE_ANGLE_UNIT()
SI_UNIT($,.RADIAN.)
);
#345=(
LENGTH_UNIT()
NAMED_UNIT(*)
SI_UNIT($,.METRE.)
);
#346=PRODUCT_DEFINITION_SHAPE('','',#347);
#347=PRODUCT_DEFINITION('','',#349,#348);
#348=PRODUCT_DEFINITION_CONTEXT('',#355,'design');
#349=PRODUCT_DEFINITION_FORMATION_WITH_SPECIFIED_SOURCE('','',#351,
 .NOT_KNOWN.);
#350=PRODUCT_RELATED_PRODUCT_CATEGORY('','',(#351));
#351=PRODUCT('mid_support','mid_support','mid_support',(#353));
#352=PRODUCT_CATEGORY('','');
#353=PRODUCT_CONTEXT('',#355,'mechanical');
#354=APPLICATION_PROTOCOL_DEFINITION('international standard',
'ap242_managed_model_based_3d_engineering',2020,#355);
#355=APPLICATION_CONTEXT('managed model based 3d engineering');
ENDSEC;
END-ISO-10303-21;
